<mxfile host="app.diagrams.net" agent="Mozilla/5.0 (Windows NT 10.0; Win64; x64) AppleWebKit/537.36 (KHTML, like Gecko) Chrome/141.0.0.0 Safari/537.36" version="28.2.0">
  <diagram name="Page-1" id="5lG0W1sNY5M1wCETl4ql">
    <mxGraphModel dx="1042" dy="562" grid="1" gridSize="10" guides="1" tooltips="1" connect="1" arrows="1" fold="1" page="1" pageScale="1" pageWidth="850" pageHeight="1100" math="0" shadow="0">
      <root>
        <mxCell id="0" />
        <mxCell id="1" parent="0" />
        <mxCell id="2-esxsviAbNynI6lgBJP-11" value="" style="edgeStyle=orthogonalEdgeStyle;rounded=0;orthogonalLoop=1;jettySize=auto;html=1;" edge="1" parent="1">
          <mxGeometry relative="1" as="geometry">
            <mxPoint x="429.5" y="100" as="sourcePoint" />
            <mxPoint x="429.5" y="120" as="targetPoint" />
            <Array as="points">
              <mxPoint x="429.5" y="30" />
              <mxPoint x="429.5" y="30" />
            </Array>
          </mxGeometry>
        </mxCell>
        <mxCell id="2-esxsviAbNynI6lgBJP-10" value="plan" style="rounded=0;whiteSpace=wrap;html=1;" vertex="1" parent="1">
          <mxGeometry x="370" width="120" height="60" as="geometry" />
        </mxCell>
        <mxCell id="2-esxsviAbNynI6lgBJP-15" value="Develop" style="rounded=0;whiteSpace=wrap;html=1;" vertex="1" parent="1">
          <mxGeometry x="370" y="120" width="130" height="60" as="geometry" />
        </mxCell>
        <mxCell id="2-esxsviAbNynI6lgBJP-27" value="" style="endArrow=classic;html=1;rounded=0;exitX=0.443;exitY=1.057;exitDx=0;exitDy=0;exitPerimeter=0;" edge="1" parent="1" source="2-esxsviAbNynI6lgBJP-15">
          <mxGeometry relative="1" as="geometry">
            <mxPoint x="300" y="270" as="sourcePoint" />
            <mxPoint x="428" y="260" as="targetPoint" />
          </mxGeometry>
        </mxCell>
        <mxCell id="2-esxsviAbNynI6lgBJP-29" value="Build" style="rounded=0;whiteSpace=wrap;html=1;" vertex="1" parent="1">
          <mxGeometry x="370" y="260" width="130" height="60" as="geometry" />
        </mxCell>
        <mxCell id="2-esxsviAbNynI6lgBJP-32" value="" style="endArrow=classic;html=1;rounded=0;exitX=0.425;exitY=1.043;exitDx=0;exitDy=0;exitPerimeter=0;" edge="1" parent="1" source="2-esxsviAbNynI6lgBJP-29">
          <mxGeometry relative="1" as="geometry">
            <mxPoint x="420" y="330" as="sourcePoint" />
            <mxPoint x="425" y="400" as="targetPoint" />
          </mxGeometry>
        </mxCell>
        <mxCell id="2-esxsviAbNynI6lgBJP-34" value="Test&lt;div&gt;&lt;br&gt;&lt;/div&gt;" style="rhombus;whiteSpace=wrap;html=1;" vertex="1" parent="1">
          <mxGeometry x="355" y="400" width="140" height="110" as="geometry" />
        </mxCell>
        <mxCell id="2-esxsviAbNynI6lgBJP-37" value="Release" style="ellipse;whiteSpace=wrap;html=1;" vertex="1" parent="1">
          <mxGeometry x="365" y="590" width="120" height="80" as="geometry" />
        </mxCell>
        <mxCell id="2-esxsviAbNynI6lgBJP-47" value="" style="endArrow=classic;html=1;rounded=0;exitX=0.5;exitY=1;exitDx=0;exitDy=0;" edge="1" parent="1" source="2-esxsviAbNynI6lgBJP-37">
          <mxGeometry relative="1" as="geometry">
            <mxPoint x="390" y="770" as="sourcePoint" />
            <mxPoint x="425" y="750" as="targetPoint" />
          </mxGeometry>
        </mxCell>
        <mxCell id="2-esxsviAbNynI6lgBJP-49" value="Deploy" style="ellipse;shape=cloud;whiteSpace=wrap;html=1;" vertex="1" parent="1">
          <mxGeometry x="365" y="740" width="120" height="80" as="geometry" />
        </mxCell>
        <mxCell id="2-esxsviAbNynI6lgBJP-53" value="" style="endArrow=classic;html=1;rounded=0;exitX=0.5;exitY=1;exitDx=0;exitDy=0;entryX=0.5;entryY=0;entryDx=0;entryDy=0;startSize=4;endSize=4;" edge="1" parent="1" source="2-esxsviAbNynI6lgBJP-34" target="2-esxsviAbNynI6lgBJP-37">
          <mxGeometry relative="1" as="geometry">
            <mxPoint x="380" y="570" as="sourcePoint" />
            <mxPoint x="480" y="570" as="targetPoint" />
          </mxGeometry>
        </mxCell>
        <mxCell id="2-esxsviAbNynI6lgBJP-59" value="Operate" style="rounded=1;whiteSpace=wrap;html=1;" vertex="1" parent="1">
          <mxGeometry x="365" y="900" width="120" height="60" as="geometry" />
        </mxCell>
        <mxCell id="2-esxsviAbNynI6lgBJP-62" value="" style="endArrow=classic;html=1;rounded=0;entryX=0.5;entryY=0;entryDx=0;entryDy=0;exitX=0.495;exitY=0.983;exitDx=0;exitDy=0;exitPerimeter=0;" edge="1" parent="1" source="2-esxsviAbNynI6lgBJP-49" target="2-esxsviAbNynI6lgBJP-59">
          <mxGeometry relative="1" as="geometry">
            <mxPoint x="430" y="830" as="sourcePoint" />
            <mxPoint x="520" y="860" as="targetPoint" />
          </mxGeometry>
        </mxCell>
        <mxCell id="2-esxsviAbNynI6lgBJP-64" value="" style="endArrow=classic;html=1;rounded=0;exitX=0.5;exitY=1;exitDx=0;exitDy=0;" edge="1" parent="1" source="2-esxsviAbNynI6lgBJP-59">
          <mxGeometry relative="1" as="geometry">
            <mxPoint x="320" y="1030" as="sourcePoint" />
            <mxPoint x="425" y="1040" as="targetPoint" />
          </mxGeometry>
        </mxCell>
        <mxCell id="2-esxsviAbNynI6lgBJP-66" value="" style="shape=parallelogram;perimeter=parallelogramPerimeter;whiteSpace=wrap;html=1;fixedSize=1;" vertex="1" parent="1">
          <mxGeometry x="365" y="1040" width="130" height="60" as="geometry" />
        </mxCell>
      </root>
    </mxGraphModel>
  </diagram>
</mxfile>
